<?xml version="1.0" encoding="UTF-8"?>
<svg version="1.1" xmlns="http://www.w3.org/2000/svg" width="116" height="26">
<path d="M0 0 C0.66 0.33 1.32 0.66 2 1 C2.33 0.34 2.66 -0.32 3 -1 C5.91821463 -1.13510253 8.83017652 -1.2341305 11.75 -1.3125 C12.9875 -1.3753418 12.9875 -1.3753418 14.25 -1.43945312 C16.601744 -1.48686732 18.69402157 -1.47157594 21 -1 C23.578125 1.51953125 23.578125 1.51953125 25 4 C25.721875 3.773125 26.44375 3.54625 27.1875 3.3125 C30.75584692 2.91601701 32.13871099 3.95622213 35 6 C35 5.34 35 4.68 35 4 C38.3 3.67 41.6 3.34 45 3 C44.505 1.02 44.505 1.02 44 -1 C46.31 -1 48.62 -1 51 -1 C51.5534764 1.07553648 52 2.84365964 52 5 C52.556875 4.649375 53.11375 4.29875 53.6875 3.9375 C56.58531848 2.76270872 58.0517025 3.06895868 61 4 C61.99 4.99 61.99 4.99 63 6 C63.33 5.34 63.66 4.68 64 4 C66.3984375 3.48046875 66.3984375 3.48046875 69.375 3.1875 C70.84066406 3.02314453 70.84066406 3.02314453 72.3359375 2.85546875 C75 3 75 3 76.8515625 4.48828125 C77.23054688 4.98714844 77.60953125 5.48601563 78 6 C78.515625 5.484375 79.03125 4.96875 79.5625 4.4375 C82.98754086 2.41760411 85.18990432 3.23798086 89 4 C91.93180204 4.13902904 91.93180204 4.13902904 94.375 3.3125 C97 3 97 3 99.75 4 C102 6 102 6 102.8125 9.6875 C102.874375 10.780625 102.93625 11.87375 103 13 C101.35 13.33 99.7 13.66 98 14 C99.32 14.33 100.64 14.66 102 15 C102.495 16.98 102.495 16.98 103 19 C101.3745692 18.85904936 99.74965949 18.71207913 98.125 18.5625 C97.22007813 18.48128906 96.31515625 18.40007813 95.3828125 18.31640625 C93 18 93 18 91 17 C91 17.66 91 18.32 91 19 C89.39504433 18.88557539 87.79101881 18.75805306 86.1875 18.625 C85.29417969 18.55539063 84.40085937 18.48578125 83.48046875 18.4140625 C81 18 81 18 78 16 C77.67 16.66 77.34 17.32 77 18 C75.35 18 73.7 18 72 18 C72 15.03 72 12.06 72 9 C71.34 9 70.68 9 70 9 C70 11.97 70 14.94 70 18 C69.195625 17.979375 68.39125 17.95875 67.5625 17.9375 C65.06645115 17.70366379 65.06645115 17.70366379 64 19 C62.0390625 18.94921875 62.0390625 18.94921875 59.625 18.6875 C58.43777344 18.56955078 58.43777344 18.56955078 57.2265625 18.44921875 C55 18 55 18 52 16 C51.67 16.66 51.34 17.32 51 18 C49.02 18 47.04 18 45 18 C45 15.03 45 12.06 45 9 C44.01 9 43.02 9 42 9 C42 11.97 42 14.94 42 18 C41.195625 17.979375 40.39125 17.95875 39.5625 17.9375 C37.06645115 17.70366379 37.06645115 17.70366379 36 19 C31.46326731 19.04686707 27.8607755 18.50943856 23.9375 16.1875 C22 14 22 14 22 10 C19.69 10.66 17.38 11.32 15 12 C15 13.98 15 15.96 15 18 C11.97170479 18.6663569 9.10601995 19.14543237 6 19 C2.9375 16.5625 2.9375 16.5625 1 14 C-0.65 15.65 -2.3 17.3 -4 19 C-4.66 18.67 -5.32 18.34 -6 18 C-5.690625 17.113125 -5.38125 16.22625 -5.0625 15.3125 C-4.711875 14.219375 -4.36125 13.12625 -4 12 C-3.71125 11.195625 -3.4225 10.39125 -3.125 9.5625 C-2.93036947 5.57257416 -4.85582082 3.31373145 -7 0 C-4.30919898 -1.34540051 -2.86443593 -0.71610898 0 0 Z M8 3 C6.28350327 4.73242436 6.28350327 4.73242436 5 7 C5.22861471 10.65783538 6.66393263 11.88524351 9 15 C9 11.04 9 7.08 9 3 C8.67 3 8.34 3 8 3 Z M15 4 C15.33 5.32 15.66 6.64 16 8 C16.66 6.68 17.32 5.36 18 4 C17.01 4 16.02 4 15 4 Z M84 8 C83.67 9.65 83.34 11.3 83 13 C85.71549154 15.30671915 85.71549154 15.30671915 88.1875 14.625 C88.785625 14.41875 89.38375 14.2125 90 14 C89.88693303 12.04105639 89.88693303 12.04105639 89 10 C86.50965614 8.70339566 86.50965614 8.70339566 84 8 Z M30 13 C30.33 13.66 30.66 14.32 31 15 C33.52733235 15.65555119 33.52733235 15.65555119 36 16 C36 15.01 36 14.02 36 13 C34.02 13 32.04 13 30 13 Z M59 13 C59.33 13.66 59.66 14.32 60 15 C61.32 15 62.64 15 64 15 C64 14.34 64 13.68 64 13 C62.35 13 60.7 13 59 13 Z " fill="#89376A" transform="translate(7,5)"/>
<path d="M0 0 C0.66 0.33 1.32 0.66 2 1 C2.33 0.34 2.66 -0.32 3 -1 C5.93804996 -1.08086376 8.87388075 -1.1404283 11.8125 -1.1875 C12.64587891 -1.21263672 13.47925781 -1.23777344 14.33789062 -1.26367188 C15.54155273 -1.27817383 15.54155273 -1.27817383 16.76953125 -1.29296875 C17.87711792 -1.31653442 17.87711792 -1.31653442 19.00708008 -1.34057617 C21.59418035 -0.8984587 22.46614155 -0.10425923 24 2 C24.0625 5.5 24.0625 5.5 23 9 C20.25818793 10.80842924 18.32132707 12 15 12 C15 13.98 15 15.96 15 18 C11.97170479 18.6663569 9.10601995 19.14543237 6 19 C2.9375 16.5625 2.9375 16.5625 1 14 C-0.65 15.65 -2.3 17.3 -4 19 C-4.66 18.67 -5.32 18.34 -6 18 C-5.690625 17.113125 -5.38125 16.22625 -5.0625 15.3125 C-4.711875 14.219375 -4.36125 13.12625 -4 12 C-3.71125 11.195625 -3.4225 10.39125 -3.125 9.5625 C-2.93036947 5.57257416 -4.85582082 3.31373145 -7 0 C-4.30919898 -1.34540051 -2.86443593 -0.71610898 0 0 Z M8 3 C6.28350327 4.73242436 6.28350327 4.73242436 5 7 C5.22861471 10.65783538 6.66393263 11.88524351 9 15 C9 11.04 9 7.08 9 3 C8.67 3 8.34 3 8 3 Z M15 4 C15.33 5.32 15.66 6.64 16 8 C16.66 6.68 17.32 5.36 18 4 C17.01 4 16.02 4 15 4 Z " fill="#0B0B0B" transform="translate(7,5)"/>
<path d="M0 0 C2.93180204 0.13902904 2.93180204 0.13902904 5.375 -0.6875 C8 -1 8 -1 10.75 0 C13 2 13 2 13.8125 5.6875 C13.874375 6.780625 13.93625 7.87375 14 9 C12.35 9.33 10.7 9.66 9 10 C10.32 10.33 11.64 10.66 13 11 C13.33 12.32 13.66 13.64 14 15 C12.3954444 14.85851011 10.79136233 14.71164314 9.1875 14.5625 C8.29417969 14.48128906 7.40085937 14.40007813 6.48046875 14.31640625 C4 14 4 14 1 13 C-0.66621616 12.96125079 -2.33394172 12.9549714 -4 13 C-4 12.34 -4 11.68 -4 11 C-4.99 10.67 -5.98 10.34 -7 10 C-4.3333581 8.66667905 -2.83319697 9.32897967 0 10 C0.33 7.69 0.66 5.38 1 3 C-3.68965706 1.88341499 -6.53763531 2.19380477 -11 4 C-8.34993827 -1.86799383 -6.05871011 -0.95663844 0 0 Z " fill="#461F39" transform="translate(96,9)"/>
<path d="M0 0 C2.875 0.8125 2.875 0.8125 4.875 1.8125 C4.875 1.4825 4.875 1.1525 4.875 0.8125 C6.525 0.8125 8.175 0.8125 9.875 0.8125 C9.875 1.4725 9.875 2.1325 9.875 2.8125 C9.215 2.8125 8.555 2.8125 7.875 2.8125 C7.875 6.7725 7.875 10.7325 7.875 14.8125 C1.94453159 16.14382964 -0.91642012 15.56998347 -6.125 12.8125 C-6.785 12.1525 -7.445 11.4925 -8.125 10.8125 C-7.98282244 6.9737059 -7.60095385 4.51761681 -5.4375 1.3125 C-3.125 -0.1875 -3.125 -0.1875 0 0 Z M-0.125 9.8125 C0.205 10.4725 0.535 11.1325 0.875 11.8125 C3.40233235 12.46805119 3.40233235 12.46805119 5.875 12.8125 C5.875 11.8225 5.875 10.8325 5.875 9.8125 C3.895 9.8125 1.915 9.8125 -0.125 9.8125 Z " fill="#150810" transform="translate(37.125,8.1875)"/>
<path d="M0 0 C2.475 0.495 2.475 0.495 5 1 C8.86773478 1.13330667 8.86773478 1.13330667 12.0625 0.375 C15 0 15 0 18 2 C17.67 2.99 17.34 3.98 17 5 C15.35 4.67 13.7 4.34 12 4 C11.67 5.65 11.34 7.3 11 9 C11.66 9.33 12.32 9.66 13 10 C13 10.66 13 11.32 13 12 C14.98 12 16.96 12 19 12 C19 12.66 19 13.32 19 14 C17.39504433 13.88557539 15.79101881 13.75805306 14.1875 13.625 C12.84751953 13.52058594 12.84751953 13.52058594 11.48046875 13.4140625 C9 13 9 13 6 11 C5.67 11.66 5.34 12.32 5 13 C4.01 13 3.02 13 2 13 C1.34 8.71 0.68 4.42 0 0 Z " fill="#C24E95" transform="translate(79,10)"/>
<path d="M0 0 C1.588125 -0.061875 3.17625 -0.12375 4.8125 -0.1875 C6.15248047 -0.23970703 6.15248047 -0.23970703 7.51953125 -0.29296875 C10 0 10 0 11.8203125 1.35546875 C13 3 13 3 13.0625 5.5 C12 8 12 8 9.0625 9.8125 C6 11 6 11 4 11 C4 12.98 4 14.96 4 17 C2.68 16.67 1.36 16.34 0 16 C0 10.72 0 5.44 0 0 Z M4 3 C4.33 4.32 4.66 5.64 5 7 C5.66 5.68 6.32 4.36 7 3 C6.01 3 5.02 3 4 3 Z " fill="#BEBEBE" transform="translate(18,6)"/>
<path d="M0 0 C3 0 3 0 5.1875 2 C5.785625 2.66 6.38375 3.32 7 4 C7.33 2.68 7.66 1.36 8 0 C9.65 0 11.3 0 13 0 C12.690625 0.7425 12.38125 1.485 12.0625 2.25 C11.711875 3.1575 11.36125 4.065 11 5 C10.566875 5.9590625 10.566875 5.9590625 10.125 6.9375 C9.92014344 10.31763327 12.09175044 12.34001577 14 15 C14 15.66 14 16.32 14 17 C12.3125 17.8125 12.3125 17.8125 10 18 C7.25 15.5625 7.25 15.5625 5 13 C3.35 14.65 1.7 16.3 0 18 C1.875 12.125 1.875 12.125 3 11 C3.33783044 7.87506846 3.30290824 6.44174118 1.5 3.8125 C1.005 3.214375 0.51 2.61625 0 2 C0 1.34 0 0.68 0 0 Z " fill="#D9D9D9" transform="translate(3,6)"/>
<path d="M0 0 C1.32 0.66 2.64 1.32 4 2 C4 2.99 4 3.98 4 5 C4.66 5.33 5.32 5.66 6 6 C4.35 6.66 2.7 7.32 1 8 C1.66 8.33 2.32 8.66 3 9 C3 9.66 3 10.32 3 11 C3.66 11 4.32 11 5 11 C5 11.66 5 12.32 5 13 C3.54054712 12.91291331 2.08234132 12.80473093 0.625 12.6875 C-0.18710938 12.62949219 -0.99921875 12.57148438 -1.8359375 12.51171875 C-4 12 -4 12 -6 9 C-6.25760279 6.30547479 -6.08900053 3.71451625 -6 1 C-4.35 1 -2.7 1 -1 1 C-1.66 2.32 -2.32 3.64 -3 5 C-3.66 5 -4.32 5 -5 5 C-4.34 5.66 -3.68 6.32 -3 7 C-0.89179203 6.6814823 -0.89179203 6.6814823 1 6 C0.67 4.02 0.34 2.04 0 0 Z " fill="#72345C" transform="translate(66,11)"/>
<path d="M0 0 C0 1.32 0 2.64 0 4 C-0.66 4 -1.32 4 -2 4 C-2.66 3.01 -3.32 2.02 -4 1 C-4.99 2.485 -4.99 2.485 -6 4 C-6.33 4.33 -6.66 4.66 -7 5 C-2.545 4.505 -2.545 4.505 2 4 C2 4.66 2 5.32 2 6 C0.02 6.33 -1.96 6.66 -4 7 C-4 7.99 -4 8.98 -4 10 C-2.02 10 -0.04 10 2 10 C2 10.66 2 11.32 2 12 C-6.13854291 11.6587613 -6.13854291 11.6587613 -9.125 9.375 C-10.40908853 5.88961684 -9.98354866 3.54077517 -9 0 C-5.78308598 -2.87224466 -3.60879993 -1.80439997 0 0 Z " fill="#BB5094" transform="translate(41,12)"/>
<path d="M0 0 C2.3125 1.0625 2.3125 1.0625 4 2 C4 2.99 4 3.98 4 5 C1.525 4.01 1.525 4.01 -1 3 C-1 4.65 -1 6.3 -1 8 C-1.99 8.33 -2.98 8.66 -4 9 C-4.33 9.66 -4.66 10.32 -5 11 C-5.66 9.68 -6.32 8.36 -7 7 C-5.68 6.01 -4.36 5.02 -3 4 C-4.65 3.67 -6.3 3.34 -8 3 C-7.67 6.3 -7.34 9.6 -7 13 C-7.99 12.34 -8.98 11.68 -10 11 C-10.67175573 3.94656489 -10.67175573 3.94656489 -8.625 1.0625 C-5.286003 -1.12069035 -3.85670547 -1.01008953 0 0 Z " fill="#10060C" transform="translate(68,9)"/>
<path d="M0 0 C0.99 0.66 1.98 1.32 3 2 C3.1875 4.625 3.1875 4.625 3 7 C0.36 7.33 -2.28 7.66 -5 8 C-5.33 7.34 -5.66 6.68 -6 6 C-4.68 6 -3.36 6 -2 6 C-2.33 4.68 -2.66 3.36 -3 2 C-3.66 2 -4.32 2 -5 2 C-5.67801034 4.90073181 -5.67801034 4.90073181 -6 8 C-5.34 8.66 -4.68 9.32 -4 10 C-7.875 9.125 -7.875 9.125 -9 8 C-9.375 5.125 -9.375 5.125 -9 2 C-5.90222368 -0.6675296 -3.82847837 -1.65900729 0 0 Z " fill="#AB4785" transform="translate(107,11)"/>
<path d="M0 0 C1.65 0 3.3 0 5 0 C4.67 5.61 4.34 11.22 4 17 C2.68 17 1.36 17 0 17 C0 11.39 0 5.78 0 0 Z " fill="#B04788" transform="translate(54,6)"/>
<path d="M0 0 C2.93180204 0.13902904 2.93180204 0.13902904 5.375 -0.6875 C8.81715293 -1.09728011 10.24123835 0.02945596 13 2 C12.67 2.99 12.34 3.98 12 5 C11.34 4.01 10.68 3.02 10 2 C7.08369887 1.94250443 7.08369887 1.94250443 4 3 C2.5073959 5.27444434 1.85757989 7.37961699 1 10 C0.67 10 0.34 10 0 10 C0.33 7.69 0.66 5.38 1 3 C-3.68965706 1.88341499 -6.53763531 2.19380477 -11 4 C-8.34993827 -1.86799383 -6.05871011 -0.95663844 0 0 Z " fill="#040103" transform="translate(96,9)"/>
<path d="M0 0 C2.31 0 4.62 0 7 0 C7.33 0.66 7.66 1.32 8 2 C6.35 2 4.7 2 3 2 C3.26103516 2.78117188 3.26103516 2.78117188 3.52734375 3.578125 C4.14457418 6.74079331 3.85094328 9.54507464 3.5625 12.75 C3.46066406 13.92046875 3.35882813 15.0909375 3.25390625 16.296875 C3.17011719 17.18890625 3.08632813 18.0809375 3 19 C2.34 19 1.68 19 1 19 C1 15.7 1 12.4 1 9 C-0.32 8.67 -1.64 8.34 -3 8 C-2.505 7.4225 -2.01 6.845 -1.5 6.25 C0.36980013 3.89599371 0.36980013 3.89599371 0 0 Z " fill="#220D1A" transform="translate(51,4)"/>
<path d="M0 0 C0.66 0 1.32 0 2 0 C3.2890625 1.6796875 3.2890625 1.6796875 4.625 3.875 C5.07101562 4.59429688 5.51703125 5.31359375 5.9765625 6.0546875 C7 8 7 8 7 10 C5.3125 10.8125 5.3125 10.8125 3 11 C0.25 8.5625 0.25 8.5625 -2 6 C-3.65 7.65 -5.3 9.3 -7 11 C-5.84414715 7.08788267 -4.64465038 4.1254959 -2 1 C2 5.75 2 5.75 2 8 C2.66 8 3.32 8 4 8 C2.68 5.36 1.36 2.72 0 0 Z " fill="#6F6F6F" transform="translate(10,13)"/>
<path d="M0 0 C2.475 0.495 2.475 0.495 5 1 C6.1671568 4.50147041 6.13357453 7.32670036 6 11 C5.67 11.66 5.34 12.32 5 13 C4.01 13 3.02 13 2 13 C1.34 8.71 0.68 4.42 0 0 Z " fill="#964577" transform="translate(79,10)"/>
<path d="M0 0 C0.33 0 0.66 0 1 0 C1.33 1.98 1.66 3.96 2 6 C3.65 6.33 5.3 6.66 7 7 C7 7.66 7 8.32 7 9 C8.98 9 10.96 9 13 9 C13 9.66 13 10.32 13 11 C3.96797347 10.81039639 3.96797347 10.81039639 0.3125 7.75 C-1.19837908 4.5843486 -1.12074148 3.2688293 0 0 Z " fill="#76355F" transform="translate(85,13)"/>
<path d="M0 0 C1.36125 0.37125 1.36125 0.37125 2.75 0.75 C0.41785852 1.95628008 -1.74642139 2.9154738 -4.25 3.75 C-5.00427297 8.72906259 -5.00427297 8.72906259 -5.25 13.75 C-6.8125 12.6875 -6.8125 12.6875 -8.25 10.75 C-8.17926543 6.85959868 -7.74920107 4.48955714 -5.5625 1.25 C-3.25 -0.25 -3.25 -0.25 0 0 Z " fill="#0A0408" transform="translate(37.25,8.25)"/>
<path d="M0 0 C1.65 0 3.3 0 5 0 C3.92598892 2.91517292 3.22189824 4.77810176 1 7 C0.01 7 -0.98 7 -2 7 C-2 6.34 -2 5.68 -2 5 C-2.66 5 -3.32 5 -4 5 C-3.67 4.34 -3.34 3.68 -3 3 C-2.34 3.33 -1.68 3.66 -1 4 C-0.67 2.68 -0.34 1.36 0 0 Z " fill="#B7B7B7" transform="translate(11,6)"/>
<path d="M0 0 C0 1.32 0 2.64 0 4 C-0.66 4 -1.32 4 -2 4 C-2.66 3.01 -3.32 2.02 -4 1 C-4.99 2.485 -4.99 2.485 -6 4 C-6.66 4 -7.32 4 -8 4 C-8 2.35 -8 0.7 -8 -1 C-4.37673261 -2.2077558 -3.35853631 -1.54311128 0 0 Z " fill="#A44280" transform="translate(41,12)"/>
<path d="M0 0 C1.32 0.66 2.64 1.32 4 2 C4 2.99 4 3.98 4 5 C4.66 5.33 5.32 5.66 6 6 C0.375 8.125 0.375 8.125 -3 7 C-1.68 6.67 -0.36 6.34 1 6 C0.67 4.02 0.34 2.04 0 0 Z " fill="#C3569A" transform="translate(66,11)"/>
<path d="M0 0 C0.33 0.99 0.66 1.98 1 3 C0.13375 2.79375 -0.7325 2.5875 -1.625 2.375 C-5.36428602 1.95952378 -7.54942141 2.60333724 -11 4 C-8.36255031 -1.84006718 -6.04918208 -1.00819701 0 0 Z " fill="#0E050B" transform="translate(96,9)"/>
<path d="M0 0 C0.66 0.33 1.32 0.66 2 1 C2 2.98 2 4.96 2 7 C1.01 7.33 0.02 7.66 -1 8 C-1.33 8.66 -1.66 9.32 -2 10 C-2.66 8.68 -3.32 7.36 -4 6 C-2.68 5.01 -1.36 4.02 0 3 C-0.66 2.34 -1.32 1.68 -2 1 C-1.34 0.67 -0.68 0.34 0 0 Z " fill="#331427" transform="translate(65,10)"/>
<path d="M0 0 C1.65 0 3.3 0 5 0 C4.34 1.32 3.68 2.64 3 4 C2.34 4 1.68 4 1 4 C1.99 5.65 2.98 7.3 4 9 C2.68 8.67 1.36 8.34 0 8 C0 5.36 0 2.72 0 0 Z " fill="#BF4D94" transform="translate(60,12)"/>
<path d="M0 0 C0.66 0.33 1.32 0.66 2 1 C2 1.99 2 2.98 2 4 C2.66 4 3.32 4 4 4 C4 3.34 4 2.68 4 2 C4.66 2 5.32 2 6 2 C5.67 2.99 5.34 3.98 5 5 C0.545 5.495 0.545 5.495 -4 6 C-4 5.34 -4 4.68 -4 4 C-3.34 4 -2.68 4 -2 4 C-2 3.34 -2 2.68 -2 2 C-1.34 2 -0.68 2 0 2 C0 1.34 0 0.68 0 0 Z " fill="#351528" transform="translate(37,12)"/>
<path d="M0 0 C0.66 1.32 1.32 2.64 2 4 C2.66 3.67 3.32 3.34 4 3 C3.67 3.99 3.34 4.98 3 6 C0.69 6.33 -1.62 6.66 -4 7 C-2.68 4.69 -1.36 2.38 0 0 Z " fill="#2F2F2F" transform="translate(25,8)"/>
<path d="M0 0 C0.99 0 1.98 0 3 0 C3 3.63 3 7.26 3 11 C1.04783565 7.09567131 0.49360009 4.27786748 0 0 Z " fill="#D456A5" transform="translate(79,10)"/>
<path d="M0 0 C2.2109885 0.42793326 3.98119242 0.99059621 6 2 C5.67 2.99 5.34 3.98 5 5 C2.53199953 3.84826645 0.95216435 2.95216435 -1 1 C-0.67 0.67 -0.34 0.34 0 0 Z " fill="#7D3260" transform="translate(91,10)"/>
<path d="M0 0 C0.33 0 0.66 0 1 0 C1 1.65 1 3.3 1 5 C0.01 5.33 -0.98 5.66 -2 6 C-2.33 6.66 -2.66 7.32 -3 8 C-3.33 6.68 -3.66 5.36 -4 4 C-2.68 3.34 -1.36 2.68 0 2 C0 1.34 0 0.68 0 0 Z " fill="#1F0C18" transform="translate(104,12)"/>
<path d="M0 0 C-2.96687001 1.64826111 -5.65626525 2.44271087 -9 3 C-8.67 2.01 -8.34 1.02 -8 0 C-5.13822943 -1.43088528 -3.06624227 -0.59991697 0 0 Z " fill="#000000" transform="translate(40,9)"/>
<path d="M0 0 C2.31 0 4.62 0 7 0 C7.33 0.66 7.66 1.32 8 2 C6.35 2 4.7 2 3 2 C3 2.66 3 3.32 3 4 C2.34 4 1.68 4 1 4 C0.67 2.68 0.34 1.36 0 0 Z " fill="#080306" transform="translate(51,4)"/>
<path d="M0 0 C0.33 0 0.66 0 1 0 C1 2.64 1 5.28 1 8 C-0.32 7.67 -1.64 7.34 -3 7 C-3 6.34 -3 5.68 -3 5 C-2.34 5 -1.68 5 -1 5 C-0.67 3.35 -0.34 1.7 0 0 Z " fill="#080306" transform="translate(72,15)"/>
<path d="M0 0 C0.33 0.66 0.66 1.32 1 2 C0.236875 1.979375 -0.52625 1.95875 -1.3125 1.9375 C-4.10185786 1.87057159 -4.10185786 1.87057159 -7 3 C-7 2.01 -7 1.02 -7 0 C-3.88407501 -1.03864166 -2.9737344 -1.09036928 0 0 Z " fill="#040103" transform="translate(83,9)"/>
</svg>
